<?xml version="1.0" encoding="UTF-8" standalone="no"?>
<!-- Created with Inkscape (http://www.inkscape.org/) -->

<svg
   width="64"
   height="64"
   viewBox="0 0 64 64"
   version="1.1"
   id="svg1"
   xmlns="http://www.w3.org/2000/svg"
   xmlns:svg="http://www.w3.org/2000/svg">
  <defs
     id="defs1" />
  <g
     id="layer4"
     style="display:inline"
     transform="translate(2.5e-4)">
    <path
       d="m 43.403158,16.99998 c -1.503225,1.33712 -3.030169,2.700286 -4.652029,4.179901 l -0.0042,0.0042 -0.0042,0.0042 c -1.955493,1.749677 -3.946952,3.554073 -5.971868,5.407415 l -0.887613,0.809973 -0.904387,-0.791075 C 28.793872,24.702699 26.628345,22.895207 24.480289,21.190374 22.703285,19.780033 21.100687,18.5805 19.538687,17.430141 l -3.527316,4.656225 c 1.082177,0.738406 2.168921,1.488974 3.747643,2.778208 l 0.01053,0.0084 c 2.113188,1.663411 4.373949,3.544914 6.788145,5.648742 l 1.095335,0.952649 -1.034484,1.017697 c -1.982965,1.948805 -3.915883,3.914043 -5.795627,5.896347 l -0.0042,0.0042 -0.0021,0.0042 c -1.552803,1.609293 -2.971662,3.19735 -4.358261,4.780028 l 4.419113,3.823183 c 0.497009,-0.616874 0.919465,-1.170516 1.630413,-1.970344 l 0.0063,-0.0063 0.0063,-0.0063 c 1.107829,-1.211705 2.384096,-2.577338 3.833674,-4.095968 l 0.0063,-0.0063 0.0042,-0.0063 c 1.486248,-1.520835 3.05876,-3.091142 4.71498,-4.712882 l 0.90019,-0.881304 0.937959,0.843534 c 1.727354,1.554642 3.35223,3.074502 4.876553,4.563899 l 0.01053,0.01053 c 1.551773,1.483055 2.917749,2.832654 4.098067,4.047706 0.775124,0.797934 1.256696,1.361617 1.804575,1.978739 l 4.280623,-3.892429 c -1.328636,-1.439125 -2.718417,-2.91441 -4.379245,-4.547112 l -0.0084,-0.0084 -0.0084,-0.0084 c -1.97484,-2.009182 -4.089306,-4.038247 -6.341091,-6.085355 l -1.080648,-0.984123 1.072254,-0.994615 c 2.375866,-2.203735 4.580483,-4.200699 6.61608,-5.994971 1.54296,-1.386068 2.582808,-2.205634 3.623841,-3.023714 z"
       style="-inkscape-font-specification:'Mochiy Pop One, Normal';fill:#3f2409;stroke-width:1;stroke-linecap:round"
       id="path18" />
  </g>
</svg>
