<?xml version="1.0" encoding="UTF-8" standalone="no"?>
<!-- Created with Inkscape (http://www.inkscape.org/) -->

<svg
   width="64"
   height="64"
   viewBox="0 0 64 64"
   version="1.1"
   id="svg1"
   xmlns="http://www.w3.org/2000/svg"
   xmlns:svg="http://www.w3.org/2000/svg">
  <defs
     id="defs1" />
  <g
     id="layer3"
     style="display:inline">
    <path
       d="m 23.878758,17 c -2.981652,0.02703 -5.827021,0.06637 -8.534499,0.120429 L 15.551346,23 c 1.884953,-0.05406 4.008922,-0.09505 6.373681,-0.122078 2.364759,0 4.814429,-0.01259 7.350547,-0.03961 h 7.505339 6.580768 c 2.056313,0.02703 3.820629,0.03961 5.294319,0.03961 V 17.120429 C 46.188425,17.066369 43.618871,17.027029 40.945665,17 h -7.967624 z"
       style="-inkscape-font-specification:'Mochiy Pop One, Normal';fill:#3f2409;stroke-width:32;stroke-linecap:round"
       id="path3" />
    <path
       d="m 23.878758,29.000001 c -2.981652,0.02703 -5.827021,0.06639 -8.534499,0.120431 l 0.207087,5.879569 c 1.884953,-0.05405 4.008922,-0.09505 6.373681,-0.122078 2.364759,0 4.814429,-0.01258 7.350547,-0.03961 h 7.505339 6.580768 c 2.056313,0.02703 3.820629,0.03961 5.294319,0.03961 v -5.757491 c -2.467575,-0.05405 -5.037129,-0.0934 -7.710335,-0.120431 h -7.967624 z"
       style="-inkscape-font-specification:'Mochiy Pop One, Normal';fill:#3f2409;stroke-width:32;stroke-linecap:round"
       id="path3-8" />
    <path
       d="M 23.878499,41 C 20.896846,41.02703 18.051478,41.06639 15.344,41.120431 L 15.551087,47 c 1.884952,-0.05406 4.008922,-0.09505 6.373681,-0.122077 2.364759,0 4.814429,-0.01259 7.350546,-0.03961 h 7.50534 6.580768 c 2.056313,0.02703 3.820629,0.03961 5.294319,0.03961 V 41.120431 C 46.188166,41.066371 43.618612,41.027031 40.945406,41 h -7.967624 z"
       style="-inkscape-font-specification:'Mochiy Pop One, Normal';display:inline;fill:#3f2409;stroke-width:32;stroke-linecap:round"
       id="path3-5" />
  </g>
</svg>
