<?xml version="1.0" encoding="UTF-8" standalone="no"?>
<!-- Created with Inkscape (http://www.inkscape.org/) -->

<svg
   width="1088"
   height="512"
   viewBox="0 0 1088 512"
   version="1.1"
   id="svg1"
   xml:space="preserve"
   xmlns="http://www.w3.org/2000/svg"
   xmlns:svg="http://www.w3.org/2000/svg"><defs
     id="defs1" /><path
     id="path1"
     style="display:inline;fill:#b4875a;fill-opacity:1;stroke-width:2.50002;stroke-linecap:round"
     d="m 643.08374,322.11389 c -166.68928,4.1814 -131.84331,24.44679 -258.8011,6.37765 -50.45822,-7.18141 -175.41716,31.10612 -186.73086,62.2254 -11.59922,31.90463 147.15412,12.74988 236.22836,18.38478 166.39668,10.52638 105.08679,38.46794 224.85995,30.41927 118.67539,-7.97491 114.22958,24.65285 217.78885,-7.79185 94.7643,-29.68927 197.91396,-5.87887 181.07406,-35.35534 -16.9706,-29.70507 -102.19576,-36.29767 -164.10356,-43.84063 -105.43351,-12.84622 -49.05445,-35.46792 -250.3157,-30.41928 z" /><path
     id="path2"
     style="fill:#b4875a;fill-opacity:1;stroke-width:2.5;stroke-linecap:round"
     d="m 693.98352,455.29949 c -17.44306,-2.84217 -29.28631,-1.52397 -32.55732,0.83043 -3.58596,2.5811 14.18384,5.78215 30.29694,13.04208 18.68869,8.42039 35.45114,0.83631 32.87003,-2.74965 -4.30853,-5.98589 -21.71594,-9.67372 -30.60965,-11.12286 z" /><path
     id="path2-8"
     style="fill:#b4875a;fill-opacity:1;stroke-width:2.5;stroke-linecap:round"
     d="m 951.34764,426.45877 c -14.1254,0 -30.0162,0.83379 -32.2939,3.77516 -2.497,3.22459 12.622,0.55222 26.5764,4.25706 9.325,2.47577 19.0734,0.96753 24.5763,-4.25706 4.9372,-4.6874 -11.6567,-3.77516 -18.8588,-3.77516 z" /><g
     id="layer2"
     style="display:inline"><g
       id="g14"
       style="display:inline"
       transform="translate(-182.64671,-65.241433)"><path
         id="path15"
         style="display:inline;fill:#fcf3fc;fill-opacity:1;stroke:#3f2409;stroke-width:32;stroke-linecap:round;stroke-linejoin:round;stroke-dasharray:none;stroke-opacity:1;paint-order:normal"
         d="m 528.04717,120.24293 c 0,0 -273.62071,44.52287 -291.5187,86.96637 -22.33652,52.96906 0.51288,197.24177 38.12592,240.71759 30.13777,34.83539 304.12485,-7.37427 304.12485,-7.37427 35.86484,-27.28034 -7.94661,-305.36151 -50.73207,-320.30969 z" /><g
         id="g8"
         style="display:inline"
         transform="rotate(99,574.13581,437.75254)"><path
           style="display:inline;fill:none;stroke:#3f2409;stroke-width:32;stroke-linecap:round;stroke-linejoin:round;paint-order:stroke fill markers"
           d="M 448.10716,133.66572 C 517.83708,77.199557 499.71841,45.605007 506.77754,-21.558063"
           id="path10" /><path
           style="display:inline;fill:#c6b4bd;fill-opacity:1;stroke-width:18;stroke-linecap:square;paint-order:normal"
           d="m 451.70961,363.26228 63.21424,-10.01215 64.46846,306.45558 -71.67824,-84.3406 z"
           id="path9" /><rect
           style="display:inline;fill:#f3c651;fill-opacity:1;stroke-width:18;stroke-linecap:square;paint-order:normal"
           id="rect1"
           width="215.73509"
           height="64.00222"
           x="207.94417"
           y="-452.65811"
           transform="rotate(81)" /><rect
           style="display:inline;fill:#b93773;fill-opacity:1;stroke-width:18;stroke-linecap:square;paint-order:normal"
           id="rect2"
           width="125.19165"
           height="64.00222"
           x="255.85234"
           y="-452.65811"
           transform="rotate(81)" /><path
           id="path19-1-7"
           style="display:inline;fill:none;fill-opacity:1;stroke:#3f2409;stroke-width:32;stroke-linecap:butt;stroke-linejoin:round;stroke-dasharray:none;stroke-opacity:1;paint-order:stroke fill markers"
           d="m 446.60792,335.30694 c 10.29123,51.33048 42.51785,232.45461 67.36368,279.56491 31.22291,38.5571 65.42101,44.83388 65.42101,44.83388 0,0 -32.473,-100.18687 -69.66061,-334.98021 L 479.61475,134.57269 c -25.36304,-5.91439 -46.89231,1.51578 -62.97777,11.5052 z" /><path
           style="display:inline;fill:none;fill-opacity:1;stroke:#3f2409;stroke-width:32;stroke-linecap:butt;stroke-linejoin:round;stroke-dasharray:none;stroke-opacity:1;paint-order:stroke fill markers"
           d="M 558.9641,308.25927 C 472.21532,292.41968 394.60707,334.29086 394.60707,334.29086"
           id="path4" /><path
           id="path8"
           style="display:inline;fill:none;fill-opacity:1;stroke:#3f2409;stroke-width:24.0001;stroke-linecap:butt;stroke-linejoin:round;stroke-dasharray:none;stroke-opacity:1;paint-order:stroke fill markers"
           d="m 487.10925,181.89103 c -25.36307,-5.91438 -46.89225,1.51615 -62.97771,11.50557" /><path
           id="path8-8"
           style="display:inline;fill:none;fill-opacity:1;stroke:#3f2409;stroke-width:24.0001;stroke-linecap:butt;stroke-linejoin:round;stroke-dasharray:none;stroke-opacity:1;paint-order:stroke fill markers"
           d="m 514.92392,353.25058 c -25.36307,-5.91438 -46.89225,1.51615 -62.97771,11.50556" /><path
           id="rect14"
           style="display:inline;fill:#fcf3fc;fill-opacity:1;stroke:#3f2409;stroke-width:32;stroke-linecap:round;stroke-linejoin:miter;stroke-dasharray:none;stroke-opacity:1;paint-order:normal"
           d="m 506.77754,-21.558063 c 17.39697,-10e-6 31.50001,-16.11775 31.5,-36 l 2e-5,-36 -63.00003,1e-5 -1e-5,36 c 1e-5,19.88223 14.10306,36 31.50002,35.99999 z" /></g><g
         id="g3"
         style="display:inline;stroke-width:1.0472"
         transform="matrix(0.15373355,0.97063542,-0.91648126,0.14515637,663.46985,8.2504988)"><path
           id="path6"
           style="display:inline;opacity:1;fill:#fcf3fc;fill-opacity:1;stroke:none;stroke-width:32.5454;stroke-linecap:butt;stroke-dasharray:none;stroke-opacity:1;paint-order:stroke fill markers"
           d="M 128.19729,205.17164 131,381.83789 257.37664,468.00294 380.5703,401.91771 383.79941,205.12285 257.37666,203.29297 Z"
           transform="matrix(1,0,0,1.0601824,0,-11.209883)" /><path
           id="path15-1-7"
           style="display:inline;fill:none;fill-opacity:1;stroke:#3f2409;stroke-width:25.1328;stroke-linecap:butt;stroke-linejoin:round;stroke-dasharray:none;stroke-opacity:1;paint-order:stroke markers fill"
           d="m 131,194.05995 c 63.93177,14.63013 186.07845,14.56176 250,-0.0528" /></g><text
         xml:space="preserve"
         style="font-style:normal;font-variant:normal;font-weight:normal;font-stretch:normal;font-size:129.788px;font-family:'Mochiy Pop One';-inkscape-font-specification:'Mochiy Pop One, Normal';font-variant-ligatures:normal;font-variant-caps:normal;font-variant-numeric:normal;font-variant-east-asian:normal;text-align:start;writing-mode:lr-tb;direction:ltr;text-anchor:start;display:inline;fill:#3f2409;fill-opacity:1;stroke:#3f2409;stroke-width:4.5;stroke-linecap:round;stroke-linejoin:miter;stroke-dasharray:none;stroke-opacity:1;paint-order:normal"
         x="302.96533"
         y="-277.72806"
         id="text4"
         transform="matrix(0.15635379,0.98717896,-0.98819799,0.15651518,0,0)"><tspan
           id="tspan4"
           x="302.96533"
           y="-277.72806"
           style="stroke-width:4.5">刀</tspan></text></g></g></svg>
