<?xml version="1.0" encoding="UTF-8" standalone="no"?>
<!-- Created with Inkscape (http://www.inkscape.org/) -->

<svg
   width="1344"
   height="608"
   viewBox="0 0 1344 608"
   version="1.1"
   id="svg1"
   xml:space="preserve"
   xmlns="http://www.w3.org/2000/svg"
   xmlns:svg="http://www.w3.org/2000/svg"><defs
     id="defs1" /><g
     id="layer2"
     style="display:inline"><path
       d="m 920.35156,515.71484 c -0.29866,3.584 -0.57338,7.21879 -0.82226,10.90235 -0.19912,3.68356 -0.37215,7.34083 -0.52149,10.97461 -1.24444,-0.39823 -2.58965,-0.69543 -4.0332,-0.89453 -1.44355,-0.2489 -2.96179,-0.375 -4.55469,-0.375 -2.688,0 -5.3745,0.49858 -8.0625,1.49414 -2.688,0.99555 -5.12813,2.51379 -7.31836,4.55468 -2.19022,1.99111 -3.95677,4.5554 -5.30078,7.69141 -1.29422,3.08622 -1.9414,6.76989 -1.94141,11.05078 10e-6,3.78311 0.57192,7.09236 1.7168,9.92969 1.1449,2.78755 2.68757,5.10158 4.62891,6.94336 1.99111,1.89156 4.20737,3.28564 6.64648,4.18164 2.48889,0.896 5.02679,1.34375 7.61524,1.34375 1.99111,0 3.83294,-0.2972 5.52539,-0.89453 1.74222,-0.59734 3.33573,-1.37063 4.77929,-2.31641 0,0.896 0.0244,1.81789 0.0742,2.76367 l 12.91797,-0.9707 c -0.19911,-3.23556 -0.3741,-6.81951 -0.52344,-10.75195 -0.0996,-3.98223 -0.14843,-8.16448 -0.14843,-12.54493 0,-4.67911 0.0489,-9.48215 0.14843,-14.41015 0.14934,-4.92801 0.37321,-9.75549 0.67188,-14.48438 0.29867,-4.77867 0.6467,-9.23368 1.04492,-13.36523 z m -171.43554,1.04493 c -0.0996,1.24444 -0.19927,2.76268 -0.29883,4.55468 -0.0996,1.79201 -0.14844,3.48524 -0.14844,5.07813 v 1.64258 c 0.0498,0.448 0.0742,0.89575 0.0742,1.34375 h 12.84375 c 0.0498,-2.28978 0.14949,-4.50409 0.29883,-6.64454 0.1991,-2.14044 0.37215,-4.05756 0.52148,-5.75 z m 346.52928,0.59765 c -0.1991,3.18578 -0.4494,6.84501 -0.748,10.97656 -0.2987,4.08178 -0.5959,8.43707 -0.8946,13.06641 -0.2489,4.62933 -0.4991,9.35905 -0.748,14.1875 -0.2489,4.82845 -0.4464,9.58065 -0.5957,14.25977 -0.1493,4.67911 -0.2246,9.06079 -0.2246,13.14257 l 12.4687,-0.15039 v -2.38867 c 1.4934,0.896 3.1113,1.61846 4.8535,2.16602 1.792,0.54755 3.7091,0.82031 5.75,0.82031 2.688,0 5.3012,-0.49663 7.8399,-1.49219 2.5884,-0.94578 4.9024,-2.41513 6.9433,-4.40625 2.0409,-1.99111 3.6589,-4.52901 4.8536,-7.61523 1.1946,-3.08623 1.7929,-6.74545 1.7929,-10.97656 0,-3.98222 -0.5739,-7.39313 -1.7187,-10.23047 -1.0952,-2.83734 -2.6134,-5.15136 -4.5547,-6.94336 -1.9413,-1.792 -4.1312,-3.11081 -6.5703,-3.95703 -2.3894,-0.896 -4.9028,-1.34375 -7.541,-1.34375 -1.9414,0 -3.7587,0.17304 -5.4512,0.52148 -1.6427,0.29867 -3.1854,0.74837 -4.6289,1.3457 0.2489,-3.98222 0.4971,-7.74116 0.7461,-11.27539 0.2986,-3.53422 0.5978,-6.7193 0.8965,-9.55664 z m -88.4062,2.61328 c -0.4978,3.13601 -0.9455,6.12361 -1.3438,8.96094 -0.3982,2.78755 -0.7707,5.44961 -1.1191,7.98828 -4.67911,0.49778 -9.08527,1.29551 -13.21683,2.39063 l 2.31446,11.72265 c 3.08622,-0.69688 6.2977,-1.27075 9.63277,-1.71875 -0.2488,3.53422 -0.373,6.94513 -0.373,10.23047 0,3.18578 0.098,6.22227 0.2969,9.10938 0.2489,2.88711 0.7719,5.44945 1.5683,7.68945 0.7965,2.24001 2.0664,3.98212 3.8086,5.22656 1.7423,1.29423 4.1071,1.94141 7.0938,1.94141 5.6248,0 10.9001,-2.33847 15.8281,-7.01758 l -5.748,-12.02148 c -0.697,1.14488 -1.568,2.21537 -2.6133,3.21093 -0.9956,0.99556 -2.0172,1.79134 -3.0625,2.38868 -1.0454,0.54756 -1.9917,0.82226 -2.8379,0.82226 -0.7467,0 -1.2941,-0.59829 -1.6426,-1.79297 -0.2987,-1.19466 -0.4473,-3.16066 -0.4473,-5.89844 0,-1.0951 0.024,-2.93694 0.074,-5.52539 0.1,-2.58844 0.2989,-5.7002 0.5976,-9.33398 1.1449,-0.0498 2.2906,-0.0742 3.4356,-0.0742 1.8915,0 3.7578,0.0508 5.5996,0.15039 1.8915,0.0498 3.7089,0.17394 5.4511,0.37305 l 1.4922,-11.72266 c -2.0906,-0.29866 -4.3802,-0.4981 -6.8691,-0.59765 -2.4391,-0.14934 -5.0523,-0.22461 -7.8399,-0.22461 0.3485,-2.38934 0.7474,-4.85391 1.1954,-7.39258 0.448,-2.58845 0.971,-5.17523 1.5683,-7.76367 z m -34.79496,15.08203 c -0.14933,1.04534 -0.32237,2.09139 -0.52148,3.13672 -2.73778,-0.79644 -5.52595,-1.19531 -8.36329,-1.19531 -3.38489,0 -6.62081,0.5983 -9.70703,1.79297 -3.08622,1.14489 -5.84799,2.81173 -8.28711,5.00195 -2.38933,2.19023 -4.282,4.8298 -5.67578,7.91602 -1.39377,3.03644 -2.08984,6.4454 -2.08984,10.22851 0,4.032 0.87106,7.69123 2.61328,10.97657 1.792,3.23555 4.20574,5.79789 7.24219,7.68945 3.03644,1.94133 6.42096,2.91211 10.15429,2.91211 2.9369,0 5.7759,-0.42331 8.51368,-1.26953 2.73778,-0.79644 5.17596,-2.38801 7.3164,-4.77735 1.29423,1.89156 3.0119,3.38536 5.15235,4.48047 2.14044,1.14489 4.85333,1.7168 8.13867,1.7168 l 1.86719,-12.99219 h -1.04688 c -1.54311,0 -2.68693,-0.44774 -3.43359,-1.34375 -0.74667,-0.94577 -1.24526,-2.14042 -1.49414,-3.58398 -0.19912,-1.49334 -0.29883,-3.01158 -0.29883,-4.55469 0,-1.89155 0.0753,-4.0081 0.22461,-6.34766 0.14933,-2.33955 0.32432,-4.67801 0.52344,-7.01757 0.24888,-2.33956 0.54608,-4.4561 0.89453,-6.34766 0.34844,-1.89155 0.69843,-3.31008 1.04687,-4.25586 z m 98.26176,0 c -0.1494,1.04534 -0.3225,2.09139 -0.5215,3.13672 -2.7378,-0.79644 -5.526,-1.19531 -8.3633,-1.19531 -3.3849,0 -6.6208,0.5983 -9.707,1.79297 -3.0862,1.14489 -5.848,2.81173 -8.2871,5.00195 -2.3894,2.19023 -4.282,4.8298 -5.6758,7.91602 -1.3938,3.03644 -2.0899,6.4454 -2.0899,10.22851 0,4.032 0.8711,7.69123 2.6133,10.97657 1.792,3.23555 4.2057,5.79789 7.2422,7.68945 3.0365,1.94133 6.421,2.91211 10.1543,2.91211 2.9369,0 5.7739,-0.42331 8.5117,-1.26953 2.7377,-0.79644 5.1779,-2.38801 7.3184,-4.77735 1.2942,1.89156 3.0118,3.38536 5.1523,4.48047 2.1405,1.14489 4.8534,1.7168 8.1387,1.7168 l 1.8652,-12.99219 h -1.0449 c -1.5431,0 -2.6869,-0.44774 -3.4336,-1.34375 -0.7467,-0.94577 -1.2453,-2.14042 -1.4941,-3.58398 -0.1992,-1.49334 -0.2989,-3.01158 -0.2989,-4.55469 0,-1.89155 0.075,-4.0081 0.2246,-6.34766 0.1494,-2.33955 0.3224,-4.67801 0.5215,-7.01757 0.2489,-2.33956 0.548,-4.4561 0.8965,-6.34766 0.3485,-1.89155 0.6965,-3.31008 1.0449,-4.25586 z m 104.6836,0 c -0.1494,1.04534 -0.3244,2.09139 -0.5235,3.13672 -2.7378,-0.79644 -5.5259,-1.19531 -8.3633,-1.19531 -3.3848,0 -6.6188,0.5983 -9.705,1.79297 -3.0862,1.14489 -5.85,2.81173 -8.2891,5.00195 -2.3893,2.19023 -4.2801,4.8298 -5.6738,7.91602 -1.3938,3.03644 -2.0918,6.4454 -2.0918,10.22851 0,4.032 0.8711,7.69123 2.6133,10.97657 1.792,3.23555 4.2076,5.79789 7.2441,7.68945 3.0365,1.94133 6.421,2.91211 10.1543,2.91211 2.9369,0 5.7739,-0.42331 8.5117,-1.26953 2.7377,-0.79644 5.1759,-2.38801 7.3164,-4.77735 1.2942,1.89156 3.0119,3.38536 5.1524,4.48047 2.1404,1.14489 4.8533,1.7168 8.1386,1.7168 l 1.8672,-12.99219 h -1.0449 c -1.5431,0 -2.6889,-0.44774 -3.4356,-1.34375 -0.7466,-0.94577 -1.2433,-2.14042 -1.4921,-3.58398 -0.1992,-1.49334 -0.2989,-3.01158 -0.2989,-4.55469 0,-1.89155 0.073,-4.0081 0.2227,-6.34766 0.1493,-2.33955 0.3243,-4.67801 0.5234,-7.01757 0.2489,-2.33956 0.548,-4.4561 0.8965,-6.34766 0.3485,-1.89155 0.6965,-3.31008 1.0449,-4.25586 z m -538.94536,0.97071 c -2.73778,0 -5.17596,0.62274 -7.31641,1.86718 -2.09066,1.19467 -3.93249,2.78819 -5.52539,4.7793 -0.0995,-1.94133 -0.17481,-3.834 -0.22461,-5.67578 l -12.54296,0.375 c 0.19908,3.38489 0.32324,6.89356 0.37304,10.52734 0.0995,3.584 0.17286,7.21684 0.22266,10.90039 0,4.03201 -0.0489,8.11454 -0.14844,12.2461 -0.0996,4.13155 -0.24815,8.26297 -0.44726,12.39453 h 12.54296 c 0.1991,-2.53867 0.32325,-5.37572 0.37305,-8.51172 0.0996,-3.18578 0.15039,-6.52141 0.15039,-10.00586 0.79645,-5.07733 2.29025,-9.03375 4.48047,-11.87109 2.24001,-2.88712 4.9529,-4.33203 8.13867,-4.33203 0.94578,0 2.11403,0.17499 3.50781,0.52343 1.44356,0.29867 2.78876,0.8217 4.03321,1.56836 l 1.41797,-12.61914 c -1.69245,-0.84622 -3.35929,-1.41813 -5.00196,-1.71679 -1.64266,-0.29867 -2.98787,-0.44922 -4.0332,-0.44922 z m 133.05664,0.15039 c -0.39823,5.27644 -0.69737,11.10109 -0.89648,17.47265 -0.19911,6.37156 -0.29883,12.76812 -0.29883,19.18946 0,5.27644 0.0753,9.92894 0.22461,13.96093 0.14933,4.03201 0.39765,8.03927 0.74609,12.02149 l 12.61914,-0.9707 c -0.29866,-3.08622 -0.54698,-6.12271 -0.74609,-9.10938 -0.19911,-2.93689 -0.34967,-5.99781 -0.44922,-9.18359 3.83289,2.98666 8.26346,4.48047 13.29102,4.48047 2.73778,0 5.40178,-0.49859 7.99023,-1.49414 2.58845,-0.94578 4.92691,-2.41319 7.01758,-4.4043 2.09066,-1.94134 3.75946,-4.43036 5.0039,-7.4668 1.24445,-3.03644 1.86524,-6.59595 1.86524,-10.67773 0,-4.13156 -0.62079,-7.66468 -1.86524,-10.60157 -1.19466,-2.93689 -2.83706,-5.32618 -4.92773,-7.16796 -2.09067,-1.89156 -4.43108,-3.2612 -7.01953,-4.10743 -2.58845,-0.896 -5.25246,-1.34375 -7.99024,-1.34375 -2.14044,0 -4.25503,0.27276 -6.3457,0.82032 -2.04089,0.54755 -3.95799,1.41861 -5.75,2.61328 0.0996,-1.29422 0.22371,-2.51331 0.37305,-3.65821 z m 448.52342,0 c -2.5884,0 -5.1038,0.29915 -7.5429,0.89648 -2.4391,0.59734 -4.629,1.51727 -6.5704,2.76172 -1.8916,1.19467 -3.4098,2.71291 -4.5546,4.55469 -1.1449,1.792 -1.7168,3.88215 -1.7168,6.27148 0,2.98667 0.7958,5.37597 2.3886,7.16797 1.6427,1.792 3.7837,3.21248 6.4219,4.25781 2.6383,1.04534 5.4753,1.96528 8.5117,2.76172 2.1405,0.49778 4.1817,0.92109 6.1231,1.26953 1.9413,0.29867 3.5348,0.67114 4.7793,1.11914 1.2444,0.39822 1.8652,0.97209 1.8652,1.71875 0,0.896 -0.6453,1.64095 -1.9395,2.23829 -1.2942,0.54756 -3.0118,0.82226 -5.1523,0.82226 -2.4889,0 -4.8048,-0.19943 -6.9453,-0.59765 -2.0907,-0.39822 -4.1056,-1.11873 -6.0469,-2.16407 -1.9413,-1.04533 -3.9581,-2.53913 -6.0488,-4.48047 l -6.7188,10.82618 c 1.8418,1.39378 3.932,2.71259 6.2715,3.95703 2.3396,1.24444 4.9527,2.26605 7.8399,3.0625 2.8871,0.79644 6.0233,1.19336 9.4082,1.19336 6.8195,0 12.1455,-1.3677 15.9785,-4.10547 3.8328,-2.68801 5.75,-6.42251 5.75,-11.20117 0,-2.83734 -0.6736,-5.10248 -2.0176,-6.79493 -1.2942,-1.74222 -3.0099,-3.06103 -5.1504,-3.95703 -2.0907,-0.94578 -4.3314,-1.66628 -6.7207,-2.16406 -2.3893,-0.54755 -4.6544,-1.07058 -6.7949,-1.56836 -3.584,-0.84622 -6.0222,-1.51784 -7.3164,-2.01562 -1.2445,-0.54756 -1.8672,-1.12142 -1.8672,-1.71875 0,-0.99556 0.4966,-1.7669 1.4922,-2.31446 1.0453,-0.54756 2.4638,-0.82031 4.2558,-0.82031 1.6427,0 3.4112,0.22388 5.3028,0.67188 1.9413,0.39822 3.8565,0.99456 5.748,1.79101 1.9414,0.74667 3.659,1.64217 5.1524,2.6875 l 6.7949,-10.30273 c -2.9867,-1.74222 -6.1229,-3.13631 -9.4082,-4.18164 -3.2355,-1.09512 -7.0923,-1.64258 -11.5723,-1.64258 z m -545.51561,0.14844 c -4.67911,0 -8.66192,0.79773 -11.94726,2.39062 -3.23556,1.59289 -5.84873,3.6586 -7.83985,6.19727 -1.99111,2.53866 -3.43407,5.27599 -4.33007,8.21289 -0.896,2.88711 -1.34375,5.64889 -1.34375,8.28711 0,4.38044 0.99521,8.2391 2.98632,11.57421 2.04089,3.33512 4.8535,5.92385 8.4375,7.76563 3.63378,1.89155 7.84047,2.83789 12.61914,2.83789 4.18134,0 7.69002,-0.47415 10.52735,-1.41992 2.83733,-0.896 5.22663,-2.03982 7.16797,-3.4336 1.9911,-1.39378 3.78406,-2.73898 5.37695,-4.0332 l -6.64648,-9.55664 c -2.28978,2.53867 -4.72797,4.42938 -7.31641,5.67383 -2.58845,1.19467 -5.57604,1.79297 -8.96094,1.79297 -2.33955,0 -4.60469,-0.57191 -6.79492,-1.7168 -2.19022,-1.19467 -3.75734,-3.0365 -4.70312,-5.52539 1.29422,0.19911 2.6883,0.37215 4.18164,0.52148 1.54311,0.14934 3.16107,0.22461 4.85351,0.22461 7.4169,0 13.13988,-1.29436 17.17188,-3.88281 4.08178,-2.63822 6.12304,-6.37077 6.12304,-11.19922 0,-0.79644 -0.1486,-1.7936 -0.44726,-2.98828 -0.24889,-1.24444 -0.77191,-2.53881 -1.56836,-3.88281 -0.74667,-1.34401 -1.86604,-2.61197 -3.35938,-3.80664 -1.44356,-1.19467 -3.33622,-2.16544 -5.67578,-2.91211 -2.28978,-0.74667 -5.12683,-1.12109 -8.51172,-1.12109 z m 172.7793,0 c -4.67911,0 -8.66193,0.79773 -11.94727,2.39062 -3.23555,1.59289 -5.84873,3.6586 -7.83984,6.19727 -1.99111,2.53866 -3.43408,5.27599 -4.33008,8.21289 -0.896,2.88711 -1.34375,5.64889 -1.34375,8.28711 0,4.38044 0.99522,8.2391 2.98633,11.57421 2.04089,3.33512 4.8535,5.92385 8.4375,7.76563 3.63378,1.89155 7.83852,2.83789 12.61719,2.83789 4.18133,0 7.69196,-0.47415 10.5293,-1.41992 2.83733,-0.896 5.22663,-2.03981 7.16796,-3.4336 1.99112,-1.39378 3.78212,-2.73898 5.375,-4.0332 l -6.64453,-9.55664 c -2.28977,2.53867 -4.72991,4.42938 -7.31836,5.67383 -2.58844,1.19467 -5.57409,1.79297 -8.95898,1.79297 -2.33955,0 -4.6047,-0.57191 -6.79492,-1.7168 -2.19022,-1.19467 -3.75735,-3.0365 -4.70313,-5.52539 1.29423,0.19911 2.68636,0.37215 4.17969,0.52148 1.54311,0.14934 3.16107,0.22461 4.85352,0.22461 7.41689,0 13.14182,-1.29436 17.17382,-3.88281 4.08178,-2.63822 6.12305,-6.37077 6.12305,-11.19922 0,-0.79644 -0.15055,-1.7936 -0.44922,-2.98828 -0.24888,-1.24444 -0.76996,-2.53881 -1.5664,-3.88281 -0.74667,-1.34401 -1.868,-2.61197 -3.36133,-3.80664 -1.44356,-1.19467 -3.33427,-2.16544 -5.67383,-2.91211 -2.28978,-0.74667 -5.12683,-1.12109 -8.51172,-1.12109 z m 424.55471,0 c -4.6792,0 -8.662,0.79773 -11.9473,2.39062 -3.2355,1.59289 -5.8487,3.6586 -7.8398,6.19727 -1.9912,2.53866 -3.4341,5.27599 -4.3301,8.21289 -0.896,2.88711 -1.3438,5.64889 -1.3438,8.28711 0,4.38044 0.9952,8.2391 2.9864,11.57421 2.0408,3.33512 4.8535,5.92385 8.4375,7.76563 3.6338,1.89155 7.8385,2.83789 12.6172,2.83789 4.1813,0 7.6919,-0.47415 10.5293,-1.41992 2.8373,-0.896 5.2266,-2.03982 7.1679,-3.4336 1.9912,-1.39378 3.7822,-2.73898 5.375,-4.0332 l -6.6445,-9.55664 c -2.2898,2.53867 -4.73,4.42938 -7.3184,5.67383 -2.5884,1.19467 -5.5741,1.79297 -8.959,1.79297 -2.3396,0 -4.6047,-0.57191 -6.7949,-1.7168 -2.1902,-1.19467 -3.7574,-3.0365 -4.7031,-5.52539 1.2942,0.19911 2.6864,0.37215 4.1797,0.52148 1.5431,0.14934 3.1611,0.22461 4.8535,0.22461 7.4169,0 13.1418,-1.29436 17.1738,-3.88281 4.0818,-2.63822 6.1231,-6.37077 6.1231,-11.19922 0,-0.79644 -0.1486,-1.7936 -0.4473,-2.98828 -0.2489,-1.24444 -0.7719,-2.53881 -1.5683,-3.88281 -0.7467,-1.34401 -1.868,-2.61197 -3.3614,-3.80664 -1.4436,-1.19467 -3.3343,-2.16544 -5.6738,-2.91211 -2.2898,-0.74667 -5.1269,-1.12109 -8.5117,-1.12109 z m -547.38283,0.0762 c -4.77868,0 -8.95897,1.06854 -12.54297,3.20898 -3.584,2.09067 -6.37217,5.05383 -8.36328,8.88672 -1.99112,3.83289 -2.98633,8.2879 -2.98633,13.36523 0,4.52978 1.07049,8.43732 3.21093,11.72266 2.14045,3.23555 4.9775,5.72457 8.51172,7.4668 3.53422,1.74222 7.39289,2.61328 11.57422,2.61328 4.18134,0 7.61474,-0.72246 10.30274,-2.16602 2.73778,-1.44356 5.02736,-3.33427 6.86914,-5.67382 1.84177,-2.33956 3.51057,-4.87941 5.0039,-7.61719 l -11.20117,-5.97266 c -0.99555,2.63822 -2.11493,4.60421 -3.35937,5.89844 -1.24445,1.29422 -2.56325,2.14084 -3.95703,2.53906 -1.39378,0.34844 -2.83674,0.52149 -4.33008,0.52149 -1.44356,0 -2.9882,-0.34804 -4.63086,-1.04493 -1.64267,-0.69689 -3.0348,-1.76738 -4.17969,-3.21093 -1.09511,-1.44356 -1.64453,-3.30983 -1.64453,-5.59961 0,-3.93245 1.04605,-7.06865 3.13672,-9.40821 2.09066,-2.38933 4.828,-3.58398 8.21289,-3.58398 2.48889,0 4.45488,0.5983 5.89844,1.79297 1.44356,1.14489 2.86403,2.83617 4.25781,5.07617 l 10.37695,-7.16797 c -2.48889,-4.032 -5.32594,-6.96877 -8.51172,-8.81055 -3.18578,-1.89155 -7.06888,-2.83593 -11.64843,-2.83593 z m 38.97656,0.44726 -12.8418,0.0742 c -0.14933,3.584 -0.27349,7.56682 -0.37305,11.94727 -0.0996,4.38044 -0.15039,8.88434 -0.15039,13.51367 0,3.53423 0.0244,7.06929 0.0742,10.60351 0.0498,3.48445 0.1495,6.76925 0.29883,9.85547 h 12.99219 c -0.0498,-1.54311 -0.12506,-3.73298 -0.22461,-6.57031 -0.0498,-2.88711 -0.0986,-6.09858 -0.14844,-9.63281 -0.0498,-3.53422 -0.0742,-7.11817 -0.0742,-10.75195 0,-3.68356 0.0244,-7.19223 0.0742,-10.52735 0.0498,-3.38488 0.17393,-6.22194 0.37305,-8.51172 z m -88.70313,10.67774 c 1.99111,0 3.50936,0.24832 4.55469,0.74609 1.04533,0.49778 1.76584,1.04525 2.16406,1.64258 0.39822,0.59733 0.59766,1.09591 0.59766,1.49414 0,0.84622 -0.44775,1.59312 -1.34375,2.24023 -0.896,0.59734 -2.03981,1.09397 -3.43359,1.49219 -1.344,0.39822 -2.73809,0.69737 -4.18165,0.89649 -1.39378,0.19911 -2.63926,0.29882 -3.73437,0.29882 -1.19467,0 -2.41376,-0.0508 -3.6582,-0.15039 -1.19467,-0.14933 -2.41377,-0.32237 -3.65821,-0.52148 1.04534,-2.43911 2.68774,-4.4051 4.92774,-5.89844 2.24,-1.49333 4.82873,-2.24023 7.76562,-2.24023 z m 172.77735,0 c 1.99111,0 3.50935,0.24832 4.55468,0.74609 1.04534,0.49778 1.7678,1.04525 2.16602,1.64258 0.39822,0.59733 0.59766,1.09591 0.59766,1.49414 0,0.84622 -0.44775,1.59312 -1.34375,2.24023 -0.896,0.59734 -2.04178,1.09397 -3.43555,1.49219 -1.34401,0.39822 -2.73809,0.69737 -4.18164,0.89649 -1.39378,0.19911 -2.63732,0.29882 -3.73242,0.29882 -1.19468,0 -2.41377,-0.0508 -3.65821,-0.15039 -1.19466,-0.14933 -2.41571,-0.32237 -3.66015,-0.52148 1.04533,-2.43911 2.68968,-4.4051 4.92968,-5.89844 2.24,-1.49333 4.82678,-2.24023 7.76368,-2.24023 z m 424.55665,0 c 1.9911,0 3.5093,0.24832 4.5547,0.74609 1.0453,0.49778 1.7658,1.04525 2.164,1.64258 0.3982,0.59733 0.5977,1.09591 0.5977,1.49414 0,0.84622 -0.4478,1.59312 -1.3438,2.24023 -0.896,0.59734 -2.0418,1.09397 -3.4355,1.49219 -1.344,0.39822 -2.738,0.69737 -4.1816,0.89649 -1.3938,0.19911 -2.6374,0.29882 -3.7325,0.29882 -1.1946,0 -2.4137,-0.0508 -3.6582,-0.15039 -1.1946,-0.14933 -2.4137,-0.32237 -3.6582,-0.52148 1.0454,-2.43911 2.6878,-4.4051 4.9278,-5.89844 2.24,-1.49333 4.8287,-2.24023 7.7656,-2.24023 z m -358.92384,1.11914 c 2.73778,0 5.27568,1.02161 7.61523,3.0625 -0.0996,4.23111 -0.14843,8.36252 -0.14843,12.39453 v 1.7168 c -1.39378,1.74222 -2.88759,2.96131 -4.48047,3.6582 -1.5929,0.69689 -3.18446,1.04492 -4.77735,1.04492 -1.344,0 -2.73808,-0.2972 -4.18164,-0.89453 -1.44355,-0.59733 -2.66459,-1.61895 -3.66015,-3.0625 -0.99556,-1.49333 -1.49219,-3.5346 -1.49219,-6.12305 0,-2.38933 0.34803,-4.32892 1.04492,-5.82226 0.74667,-1.54311 1.66856,-2.73776 2.76367,-3.58399 1.1449,-0.896 2.36399,-1.51874 3.65821,-1.86718 1.29422,-0.34844 2.51331,-0.52344 3.6582,-0.52344 z m 203.69144,0.37304 c 3.335,10e-6 5.8485,0.87106 7.541,2.61329 1.7422,1.74222 2.6133,4.28207 2.6133,7.61718 0,2.9369 -0.4986,5.22648 -1.4942,6.86914 -0.9955,1.64267 -2.2391,2.81288 -3.7324,3.50977 -1.4436,0.64711 -2.8865,0.9707 -4.3301,0.9707 -4.3804,0 -7.7914,-1.61795 -10.2304,-4.85351 0.1493,-4.38045 0.3243,-8.86186 0.5234,-13.44141 2.3396,-2.19023 5.376,-3.28516 9.1094,-3.28516 z m -150.90238,0.0762 c 2.28978,0 4.47965,0.39691 6.57031,1.19336 -0.14933,1.792 -0.27349,3.60939 -0.37304,5.45117 -0.0996,1.84178 -0.14844,3.63472 -0.14844,5.37695 0,0.84622 0.0244,1.66645 0.0742,2.46289 -1.09511,2.38934 -2.4892,4.282 -4.18164,5.67578 -1.69245,1.344 -3.80704,2.01563 -6.34571,2.01563 -2.63822,0 -4.83004,-0.69802 -6.57226,-2.0918 -1.69245,-1.44355 -2.66127,-3.35871 -2.91016,-5.74805 -0.0498,-0.24889 -0.0762,-0.52359 -0.0762,-0.82226 v -0.89649 c 0,-2.48888 0.5983,-4.67875 1.79297,-6.57031 1.19467,-1.89155 2.83707,-3.35896 4.92773,-4.4043 2.14045,-1.09511 4.55419,-1.64257 7.24219,-1.64257 z m 98.26168,0 c 2.2898,0 4.4797,0.39691 6.5704,1.19336 -0.1494,1.792 -0.2736,3.60939 -0.3731,5.45117 -0.1,1.84178 -0.1504,3.63472 -0.1504,5.37695 0,0.84622 0.026,1.66645 0.076,2.46289 -1.0951,2.38934 -2.4893,4.282 -4.1817,5.67578 -1.6924,1.344 -3.8089,2.01563 -6.3476,2.01563 -2.6382,0 -4.8281,-0.69802 -6.5703,-2.0918 -1.6924,-1.44355 -2.6632,-3.35871 -2.9121,-5.74805 -0.05,-0.24889 -0.074,-0.52359 -0.074,-0.82226 v -0.89649 c -1e-4,-2.48888 0.5963,-4.67875 1.791,-6.57031 1.1946,-1.89155 2.839,-3.35896 4.9297,-4.4043 2.1404,-1.09511 4.5541,-1.64257 7.2421,-1.64257 z m 104.6817,0 c 2.2898,0 4.4816,0.39691 6.5722,1.19336 -0.1493,1.792 -0.2754,3.60939 -0.375,5.45117 -0.1,1.84178 -0.1484,3.63472 -0.1484,5.37695 0,0.84622 0.024,1.66645 0.074,2.46289 -1.0951,2.38934 -2.4873,4.282 -4.1797,5.67578 -1.6924,1.344 -3.8089,2.01563 -6.3476,2.01563 -2.6382,0 -4.8281,-0.69802 -6.5703,-2.0918 -1.6924,-1.44355 -2.6632,-3.35871 -2.9121,-5.74805 -0.05,-0.24889 -0.074,-0.52359 -0.074,-0.82226 v -0.89649 c 0,-2.48888 0.5964,-4.67875 1.7911,-6.57031 1.1946,-1.89155 2.837,-3.35896 4.9277,-4.4043 2.1404,-1.09511 4.5542,-1.64257 7.2422,-1.64257 z m -374.82619,0.0742 c 0.84622,0 1.89227,0.14859 3.13672,0.44726 1.24444,0.24889 2.46353,0.74748 3.6582,1.49414 1.19467,0.69689 2.18988,1.71655 2.98633,3.06055 0.79644,1.344 1.19531,3.08611 1.19531,5.22656 0,8.01423 -3.50868,12.02149 -10.52734,12.02149 -2.9369,0 -5.35259,-0.57191 -7.24414,-1.7168 -1.89156,-1.19467 -3.43424,-2.58875 -4.62891,-4.18164 0.0498,-3.08622 0.1495,-6.12271 0.29883,-9.10938 2.48889,-4.82845 6.197,-7.24218 11.125,-7.24218 z"
       style="-inkscape-font-specification:'Mochiy Pop One, Normal';fill:#fc75a2;stroke-width:1.5;stroke-linejoin:round;paint-order:stroke markers fill"
       id="path2" /><path
       d="m 1291.4883,311.31055 c -1.792,1.536 -4.2883,3.58257 -7.4883,6.14257 -3.072,2.432 -6.4638,5.18386 -10.1758,8.25586 -3.712,2.944 -7.4247,5.82463 -11.1367,8.64063 -3.712,2.816 -7.0404,5.31228 -9.9844,7.48828 l 9.9844,14.40039 c 3.328,-1.792 7.1041,-3.77712 11.3281,-5.95312 4.224,-2.304 8.5133,-4.73493 12.8653,-7.29493 4.48,-2.56 8.5117,-4.92751 12.0957,-7.10351 3.712,-2.304 6.5272,-4.28913 8.4472,-5.95313 z m -102.9121,3.45507 c -8.32,10e-6 -15.2958,1.60079 -20.9278,4.80079 -5.632,3.2 -10.1768,7.48728 -13.6328,12.86328 -3.456,5.248 -6.1444,11.19947 -8.0644,17.85547 -1.792,6.656 -3.0719,13.50492 -3.8399,20.54492 -6.4,0.384 -12.607,0.96051 -18.623,1.72851 -5.888,0.768 -11.1362,1.6635 -15.7442,2.6875 l 4.0313,30.72071 c 4.224,-1.152 8.7688,-2.11286 13.6328,-2.88086 4.992,-0.768 10.1767,-1.34452 15.5527,-1.72852 V 446.86133 468.75 c 0,7.424 0.063,14.72067 0.1914,21.88867 h 32.6407 c -0.256,-9.856 -0.5136,-19.07244 -0.7696,-27.64844 -0.128,-8.704 -0.1914,-17.15175 -0.1914,-25.34375 0,-6.144 0.063,-12.28764 0.1914,-18.43164 0.128,-6.272 0.3202,-12.67317 0.5762,-19.20117 6.528,0 12.737,0.25558 18.625,0.76758 6.016,0.384 11.2641,0.96052 15.7442,1.72852 l 3.0703,-30.14454 c -4.608,-0.64 -10.0464,-1.15115 -16.3184,-1.53515 -6.144,-0.512 -12.672,-0.83294 -19.584,-0.96094 0.64,-7.552 2.112,-13.3747 4.416,-17.4707 2.304,-4.224 6.3991,-6.33594 12.2871,-6.33594 5.504,0 12.4798,1.91977 20.9278,5.75977 l 6.5293,-30.52735 c -9.856,-4.352 -20.0967,-6.5293 -30.7207,-6.5293 z m -727.10354,13.82422 c -1.28,8.064 -2.43304,15.74502 -3.45704,23.04102 -1.02399,7.168 -1.9829,14.01497 -2.8789,20.54297 -12.032,1.28 -23.36038,3.32853 -33.98438,6.14453 l 5.95118,30.14453 c 7.936,-1.792 16.19353,-3.26401 24.76953,-4.41602 -0.64,9.088 -0.96094,17.85474 -0.96094,26.30274 0,8.192 0.25558,15.99983 0.76758,23.42383 0.64,7.424 1.9852,14.01734 4.0332,19.77734 2.048,5.76 5.31102,10.23945 9.79102,13.43945 4.48,3.328 10.56023,4.99219 18.24023,4.99219 14.464,0 28.03308,-6.01683 40.70508,-18.04883 l -14.78516,-30.91211 c -1.792,2.944 -4.0327,5.69586 -6.7207,8.25586 -2.56,2.56 -5.18309,4.60853 -7.87109,6.14453 -2.688,1.40801 -5.12088,2.11133 -7.29688,2.11133 -1.92,0 -3.32666,-1.53542 -4.22266,-4.60742 -0.768,-3.072 -1.15234,-8.12797 -1.15234,-15.16797 0,-2.816 0.0634,-7.55103 0.19141,-14.20703 0.256,-6.656 0.76911,-14.656 1.53711,-24 2.944,-0.128 5.88803,-0.19336 8.83203,-0.19336 4.864,0 9.66243,0.12877 14.39843,0.38477 4.86401,0.128 9.53758,0.44698 14.01758,0.95898 l 3.83985,-30.14258 c -5.376,-0.768 -11.26407,-1.28111 -17.66407,-1.53711 -6.272,-0.384 -12.99215,-0.57617 -20.16015,-0.57617 0.896,-6.144 1.92026,-12.47981 3.07226,-19.00781 1.152,-6.656 2.49525,-13.3108 4.03125,-19.9668 z m 598.46284,38.78321 c -0.384,2.688 -0.8317,5.37645 -1.3437,8.06445 -7.04,-2.048 -14.2079,-3.07227 -21.5039,-3.07227 -8.704,0 -17.0249,1.53738 -24.9609,4.60938 -7.936,2.944 -15.03862,7.23128 -21.31059,12.86328 -6.144,5.632 -11.0078,12.41556 -14.5918,20.35156 -3.584,7.808 -5.37695,16.57669 -5.37695,26.30469 0,10.368 2.2407,19.77661 6.7207,28.22461 4.608,8.32 10.81505,14.91139 18.62305,19.77539 7.80799,4.992 16.51329,7.48828 26.11329,7.48828 7.552,0 14.8467,-1.08767 21.8867,-3.26367 7.04,-2.048 13.3124,-6.14506 18.8164,-12.28906 3.328,4.864 7.7441,8.70353 13.2481,11.51953 5.504,2.944 12.4797,4.41601 20.9277,4.41601 l 4.8008,-33.4082 h -2.6875 c -3.968,0 -6.9121,-1.15108 -8.8321,-3.45508 -1.92,-2.432 -3.2018,-5.50479 -3.8418,-9.21679 -0.512,-3.84 -0.7675,-7.74294 -0.7675,-11.71094 0,-4.864 0.1921,-10.30431 0.5761,-16.32031 0.384,-6.016 0.8318,-12.03283 1.3438,-18.04883 0.64,-6.016 1.4087,-11.45436 2.3047,-16.31836 0.896,-4.864 1.7915,-8.51331 2.6875,-10.94531 z m -465.40816,3.07226 c -8.448,0 -16.25582,1.53738 -23.42382,4.60938 -7.168,2.944 -13.43846,7.10251 -18.81446,12.47851 -5.248,5.376 -9.40847,11.71182 -12.48047,19.00782 -2.944,7.168 -4.41601,14.97778 -4.41601,23.42578 0,8.32 1.21644,16.25464 3.64844,23.80664 2.432,7.552 6.14276,14.27215 11.13476,20.16015 4.992,5.76 11.26441,10.30482 18.81641,13.63282 7.68,3.328 16.64086,4.99218 26.88086,4.99218 19.328,0 34.30373,-5.3135 44.92773,-15.9375 10.624,-10.752 15.93555,-25.79114 15.93555,-45.11914 0,-8.704 -1.60078,-16.7674 -4.80078,-24.1914 -3.072,-7.424 -7.42269,-13.88858 -13.05469,-19.39258 -5.632,-5.504 -12.22534,-9.79128 -19.77734,-12.86328 -7.552,-3.072 -15.74418,-4.60938 -24.57618,-4.60938 z m 689.08786,0.19336 c -12.032,0 -22.2707,2.04658 -30.7187,6.14258 -8.32,4.096 -15.0402,9.4095 -20.1602,15.9375 -5.12,6.528 -8.8327,13.56714 -11.1367,21.11914 -2.304,7.424 -3.4551,14.5285 -3.4551,21.3125 0,11.264 2.5597,21.18377 7.6797,29.75977 5.248,8.576 12.4793,15.23275 21.6953,19.96875 9.344,4.864 20.1613,7.29492 32.4493,7.29492 10.7519,0 19.7743,-1.21644 27.0703,-3.64844 7.296,-2.304 13.4416,-5.24803 18.4336,-8.83203 5.12,-3.584 9.7282,-7.03919 13.8242,-10.36719 L 1322.207,444.75 c -5.888,6.528 -12.1584,11.3918 -18.8144,14.5918 -6.656,3.072 -14.337,4.60742 -23.041,4.60742 -6.016,0 -11.8387,-1.47202 -17.4707,-4.41602 -5.632,-3.072 -9.6657,-7.80703 -12.0977,-14.20703 3.328,0.512 6.912,0.95975 10.752,1.34375 3.968,0.384 8.1284,0.57617 12.4804,0.57617 19.072,0 33.7922,-3.32837 44.1602,-9.98437 10.496,-6.784 15.7441,-16.38283 15.7441,-28.79883 0,-2.048 -0.3843,-4.60964 -1.1523,-7.68164 -0.64,-3.2 -1.9833,-6.52642 -4.0313,-9.98242 -1.92,-3.456 -4.8006,-6.72097 -8.6406,-9.79297 -3.712,-3.072 -8.5758,-5.56828 -14.5918,-7.48828 -5.888,-1.92 -13.1847,-2.87891 -21.8887,-2.87891 z m -377.66403,0.19141 c -12.288,0 -23.03986,2.75186 -32.25586,8.25586 -9.216,5.376 -16.3839,12.99165 -21.5039,22.84765 -5.12,9.856 -7.67969,21.31314 -7.67969,34.36914 0,11.648 2.75186,21.69458 8.25586,30.14258 5.504,8.32 12.80067,14.72117 21.88867,19.20117 9.088,4.48 19.00777,6.71875 29.75977,6.71875 10.752,0 19.58409,-1.8544 26.49609,-5.5664 7.04,-3.712 12.92806,-8.57775 17.66406,-14.59375 4.736,-6.016 9.02328,-12.54399 12.86328,-19.58399 l -28.79883,-15.35937 c -2.55999,6.784 -5.44062,11.83997 -8.64062,15.16797 -3.2,3.328 -6.59178,5.50334 -10.17578,6.52734 -3.584,0.896 -7.29672,1.3457 -11.13672,1.3457 -3.712,0 -7.6803,-0.89745 -11.9043,-2.68945 -4.224,-1.792 -7.80795,-4.54386 -10.75195,-8.25586 -2.816,-3.712 -4.22266,-8.51239 -4.22266,-14.40039 0,-10.112 2.6865,-18.17541 8.0625,-24.19141 5.376,-6.14399 12.4171,-9.21484 21.1211,-9.21484 6.4,0 11.45597,1.53542 15.16797,4.60742 3.712,2.944 7.35936,7.29664 10.94336,13.05664 l 26.68945,-18.43359 c -6.4,-10.368 -13.69667,-17.92025 -21.88867,-22.65625 -8.192,-4.864 -18.17713,-7.29492 -29.95313,-7.29492 z m -197.75976,1.53515 -35.13477,2.11329 c -0.512,8.832 -1.02511,16.95881 -1.53711,24.38281 -0.384,7.424 -0.57617,14.72067 -0.57617,21.88867 0,6.272 0.19217,12.79998 0.57617,19.58398 0.512,6.656 1.47286,13.12058 2.88086,19.39258 1.536,6.144 3.84011,11.71113 6.91211,16.70313 3.2,4.992 7.42388,8.89689 12.67187,11.71289 5.376,2.944 12.15957,4.41601 20.35157,4.41601 8.064,0 14.97633,-1.21643 20.73633,-3.64843 5.888,-2.304 10.8152,-5.56897 14.7832,-9.79297 2.304,3.84 5.3768,6.91279 9.2168,9.21679 3.968,2.304 9.02396,3.45508 15.16796,3.45508 3.584,0 7.80788,-0.38239 12.67188,-1.15039 l 1.34375,-33.02539 c -2.048,1.28 -3.839,2.17745 -5.375,2.68945 -1.536,0.512 -2.94461,0.76758 -4.22461,0.76758 -2.56,0 -4.35295,-1.21643 -5.37695,-3.64844 -1.024,-2.56 -1.53516,-6.78387 -1.53516,-12.67187 0,-2.304 0.12877,-6.84881 0.38477,-13.63281 0.256,-6.912 0.83056,-15.42316 1.72656,-25.53516 0.896,-10.112 2.2412,-21.1848 4.0332,-33.2168 l -19.77734,0.38477 -16.31836,0.38477 v 8.83203 c 0,27.392 -2.04853,47.4237 -6.14453,60.0957 -4.096,12.672 -10.49717,19.00781 -19.20117,19.00781 -4.352,0 -7.61502,-2.94403 -9.79102,-8.83203 -2.176,-6.016 -3.26367,-15.23244 -3.26367,-27.64844 0,-7.552 0.31898,-14.78331 0.95898,-21.69531 0.64,-6.912 1.34528,-13.05564 2.11328,-18.43164 z m 575.99999,27.07227 c 5.12,0 9.0249,0.63992 11.7129,1.91992 2.688,1.28 4.5444,2.68861 5.5684,4.22461 1.024,1.536 1.5351,2.81584 1.5351,3.83984 0,2.176 -1.1511,4.09577 -3.4551,5.75977 -2.304,1.536 -5.248,2.81584 -8.832,3.83984 -3.456,1.024 -7.0399,1.79269 -10.7519,2.30469 -3.584,0.512 -6.7856,0.76758 -9.6016,0.76758 -3.072,0 -6.2063,-0.12877 -9.4063,-0.38477 -3.072,-0.384 -6.2082,-0.83175 -9.4082,-1.34375 2.688,-6.272 6.9119,-11.32796 12.6719,-15.16796 5.76,-3.84 12.4148,-5.75977 19.9668,-5.75977 z m -688.89453,2.11328 c 8.70401,0 15.74315,2.6865 21.11915,8.0625 5.376,5.376 8.06445,12.4805 8.06445,21.3125 0,9.856 -2.49628,17.40825 -7.48828,22.65625 -4.864,5.248 -11.9685,7.87109 -21.3125,7.87109 -6.784,0 -12.35113,-1.40665 -16.70313,-4.22265 -4.352,-2.944 -7.55161,-6.72013 -9.59961,-11.32813 -1.92,-4.608 -2.88086,-9.34498 -2.88086,-14.20898 0,-5.504 1.27985,-10.49461 3.83985,-14.97461 2.688,-4.608 6.20854,-8.25731 10.56054,-10.94531 4.352,-2.816 9.1524,-4.22266 14.40039,-4.22266 z m 442.75193,1.91992 c 5.888,0 11.5186,1.02232 16.8946,3.07032 -0.384,4.608 -0.703,9.28157 -0.959,14.01757 -0.256,4.736 -0.3848,9.34422 -0.3848,13.82422 0,2.176 0.063,4.28794 0.1914,6.33594 -2.816,6.144 -6.3999,11.0078 -10.7519,14.5918 -4.352,3.456 -9.7904,5.18359 -16.3184,5.18359 -6.784,0 -12.4165,-1.79295 -16.8965,-5.37695 -4.352,-3.712 -6.8483,-8.63921 -7.4883,-14.78321 -0.128,-0.64 -0.1914,-1.34332 -0.1914,-2.11132 v -2.30469 c 0,-6.4 1.5355,-12.03249 4.6075,-16.89649 3.072,-4.864 7.2958,-8.64012 12.6718,-11.32812 5.504,-2.816 11.713,-4.22266 18.625,-4.22266 z"
       style="-inkscape-font-specification:'Mochiy Pop One, Normal';fill:#3f2409;stroke-width:1.5;stroke-linejoin:round;paint-order:stroke markers fill"
       id="path1" /><g
       id="g14"><path
         id="path15"
         style="display:inline;fill:#fcf3fc;fill-opacity:1;stroke:#3f2409;stroke-width:32;stroke-linecap:round;stroke-linejoin:round;stroke-dasharray:none;stroke-opacity:1;paint-order:normal"
         d="m 20.703986,254.71338 c 0,0 1.17102,277.21688 40.29211,301.53415 48.822714,30.3477 194.893624,30.34884 243.718164,0 39.12109,-24.31727 40.29212,-301.53415 40.29212,-301.53415 -21.33397,-39.69087 -302.845124,-39.92029 -324.302394,0 z" /><ellipse
         style="display:inline;opacity:1;fill:#b4875a;fill-opacity:1;stroke:none;stroke-width:32;stroke-linecap:butt;stroke-dasharray:none;stroke-opacity:1;paint-order:stroke fill markers"
         id="path7"
         cx="182.85516"
         cy="283.78265"
         rx="122.84181"
         ry="22.13435" /><g
         id="g8"
         style="display:inline"
         transform="rotate(126,476.70307,439.52431)"><path
           style="display:inline;fill:none;stroke:#3f2409;stroke-width:32;stroke-linecap:round;stroke-linejoin:round;paint-order:stroke fill markers"
           d="m 181.19985,708.313 c 42.63728,-30.9778 60.5579,-16.28317 106.65782,-108.39335"
           id="path10" /><path
           style="display:inline;fill:#c6b4bd;fill-opacity:1;stroke-width:18;stroke-linecap:square;paint-order:normal"
           d="M 408.53318,740.67172 V 676.6695 l 312.76769,-15.73453 -94.51517,57.60199 z"
           id="path9" /><rect
           style="display:inline;fill:#f3c651;fill-opacity:1;stroke-width:18;stroke-linecap:square;paint-order:normal"
           id="rect1"
           width="215.73509"
           height="64.00222"
           x="187.02448"
           y="677.33521" /><rect
           style="display:inline;fill:#b93773;fill-opacity:1;stroke-width:18;stroke-linecap:square;paint-order:normal"
           id="rect2"
           width="125.19165"
           height="64.00222"
           x="234.93263"
           y="677.33521" /><path
           id="path19-1-7"
           style="display:inline;fill:none;fill-opacity:1;stroke:#3f2409;stroke-width:32;stroke-linecap:butt;stroke-linejoin:round;stroke-dasharray:none;stroke-opacity:1;paint-order:stroke fill markers"
           d="m 380.12393,741.33742 c 52.30842,-2.13467 236.24397,-5.63047 286.66101,-22.80074 42.96673,-24.80684 54.516,-57.602 54.516,-57.602 0,0 -104.0333,16.40052 -341.75337,16.40052 H 187.02446 c -9.80923,24.12557 -5.83845,46.55211 1.51166,64.00222 z" /><path
           style="display:inline;fill:none;fill-opacity:1;stroke:#3f2409;stroke-width:32;stroke-linecap:butt;stroke-linejoin:round;stroke-dasharray:none;stroke-opacity:1;paint-order:stroke fill markers"
           d="m 370.98564,626.13334 c -29.21507,83.2029 0,166.40576 0,166.40576"
           id="path4" /><path
           id="path8"
           style="display:inline;fill:none;fill-opacity:1;stroke:#3f2409;stroke-width:24.0001;stroke-linecap:butt;stroke-linejoin:round;stroke-dasharray:none;stroke-opacity:1;paint-order:stroke fill markers"
           d="m 234.93263,677.33519 c -9.80922,24.1256 -5.83808,46.55211 1.51203,64.00222" /><path
           id="path8-8"
           style="display:inline;fill:none;fill-opacity:1;stroke:#3f2409;stroke-width:24.0001;stroke-linecap:butt;stroke-linejoin:round;stroke-dasharray:none;stroke-opacity:1;paint-order:stroke fill markers"
           d="m 408.53363,676.6695 c -9.80922,24.1256 -5.83808,46.55211 1.51203,64.00222" /><path
           id="rect14"
           style="display:inline;fill:#fcf3fc;fill-opacity:1;stroke:#3f2409;stroke-width:32;stroke-linecap:round;stroke-linejoin:miter;stroke-dasharray:none;stroke-opacity:1;paint-order:normal"
           d="m 287.85767,599.91965 c 16.54549,5.37595 34.93894,-5.59486 41.08288,-24.504 l 11.12463,-34.23803 -59.91657,-19.46807 -11.12462,34.23803 c -6.14395,18.90913 2.28818,38.59611 18.83368,43.97207 z" /></g><g
         id="g3"
         style="display:inline;stroke-width:1.0472"
         transform="matrix(0.98273451,0,0,0.92790531,-68.724856,103.4385)"><path
           id="path6"
           style="display:inline;opacity:1;fill:#fcf3fc;fill-opacity:1;stroke:none;stroke-width:32.5454;stroke-linecap:butt;stroke-dasharray:none;stroke-opacity:1;paint-order:stroke fill markers"
           d="M 128.19729,205.17164 131,381.83789 l 126.37664,86.16505 126.37727,-86.16505 0.0455,-176.71504 -126.42275,-1.82988 z"
           transform="matrix(1,0,0,1.0601824,0,-11.209883)" /><path
           id="path15-1-7"
           style="display:inline;fill:none;fill-opacity:1;stroke:#3f2409;stroke-width:25.1328;stroke-linecap:butt;stroke-linejoin:round;stroke-dasharray:none;stroke-opacity:1;paint-order:stroke markers fill"
           d="m 131,194.05995 c 63.93177,14.63013 186.07845,14.56176 250,-0.0528" /></g><path
         d="m 130.66211,378.63672 v 23.7207 h 33.44336 c -0.31229,6.15332 -0.90656,12.33659 -1.89258,18.5625 l -0.002,0.0137 -0.002,0.0137 c -1.0109,6.91495 -2.86155,13.61095 -5.55859,20.10742 -2.65539,6.39611 -6.60083,12.39626 -11.88477,18.02148 -5.21623,5.55317 -12.24732,10.51674 -21.13867,14.83985 l -3.29687,1.60546 2.92187,2.21485 c 2.70989,2.05507 5.36369,4.58324 7.95508,7.5957 l 0.002,0.002 0.002,0.002 c 2.68644,3.1094 4.70789,5.97209 6.07226,8.54297 l 1.06446,2.00781 1.99414,-1.08399 c 10.21549,-5.55378 18.56146,-11.93739 24.99414,-19.18164 l 0.006,-0.006 0.004,-0.006 c 6.37489,-7.26777 11.3173,-15.10202 14.78907,-23.47851 3.43688,-8.29233 5.86165,-16.85589 7.27343,-25.67969 1.36261,-8.10388 2.23097,-16.13002 2.71094,-24.09375 h 28.02344 c -0.59371,20.31962 -1.33892,35.9992 -2.24414,46.37891 -0.47017,5.3475 -1.06794,9.58774 -1.76563,12.64844 -0.6941,3.04493 -1.63191,4.90805 -2.01758,5.32031 -0.69469,0.68985 -1.31617,1.10517 -1.81445,1.30469 -0.48081,0.19251 -1.34278,0.35742 -2.53906,0.35742 h -8.37891 c -3.58251,-0.0854 -7.56234,-0.30087 -11.93945,-0.64453 l -4.67774,-0.36719 2.64258,3.88086 c 1.18643,1.7419 2.28332,3.84734 3.27149,6.32031 l 0.006,0.0117 0.004,0.0137 c 0.99907,2.4169 1.78695,4.77821 2.36328,7.08594 l 0.006,0.0273 0.008,0.0254 c 0.65947,2.39304 1.01368,4.44963 1.08984,6.12696 l 0.0937,2.10351 2.10352,0.0449 c 4.08054,0.087 8.16164,0.13086 12.24218,0.13086 4.16029,0 7.69872,-0.26215 10.66211,-0.81836 l 0.008,-0.002 h 0.006 c 3.28114,-0.63865 6.21269,-1.65607 8.77539,-3.07227 2.86289,-1.44027 5.41749,-3.92012 7.79493,-7.30078 1.76053,-2.39232 3.01314,-5.66327 4.00195,-9.89257 0.99014,-4.23496 1.77032,-9.80706 2.38086,-16.78125 0.69849,-6.99214 1.26368,-15.77277 1.69726,-26.36329 0.4332,-10.58074 0.82183,-23.40391 1.16797,-38.47656 0.0884,-0.96309 0.12891,-2.12089 0.12891,-3.55859 v -4.07422 l 0.29687,-4.15039 z"
         style="-inkscape-font-specification:'Mochiy Pop One, Normal';fill:#3f2409;stroke-linecap:round"
         id="path11" /></g></g></svg>
