<?xml version="1.0" encoding="UTF-8" standalone="no"?>
<!-- Created with Inkscape (http://www.inkscape.org/) -->

<svg
   width="608"
   height="608"
   viewBox="0 0 608 608"
   version="1.1"
   id="svg1"
   xml:space="preserve"
   xmlns="http://www.w3.org/2000/svg"
   xmlns:svg="http://www.w3.org/2000/svg"><defs
     id="defs1" /><g
     id="layer2"
     style="display:inline"><g
       id="g14"
       transform="translate(27.600777)"><path
         id="path15"
         style="display:inline;fill:#fcf3fc;fill-opacity:1;stroke:#3f2409;stroke-width:32;stroke-linecap:round;stroke-linejoin:round;stroke-dasharray:none;stroke-opacity:1;paint-order:normal"
         d="m 20.703986,254.71338 c 0,0 1.17102,277.21688 40.29211,301.53415 48.822714,30.3477 194.893624,30.34884 243.718164,0 39.12109,-24.31727 40.29212,-301.53415 40.29212,-301.53415 -21.33397,-39.69087 -302.845124,-39.92029 -324.302394,0 z" /><ellipse
         style="display:inline;opacity:1;fill:#b4875a;fill-opacity:1;stroke:none;stroke-width:32;stroke-linecap:butt;stroke-dasharray:none;stroke-opacity:1;paint-order:stroke fill markers"
         id="path7"
         cx="182.85516"
         cy="283.78265"
         rx="122.84181"
         ry="22.13435" /><g
         id="g8"
         style="display:inline"
         transform="rotate(126,476.70307,439.52431)"><path
           style="display:inline;fill:none;stroke:#3f2409;stroke-width:32;stroke-linecap:round;stroke-linejoin:round;paint-order:stroke fill markers"
           d="m 181.19985,708.313 c 42.63728,-30.9778 60.5579,-16.28317 106.65782,-108.39335"
           id="path10" /><path
           style="display:inline;fill:#c6b4bd;fill-opacity:1;stroke-width:18;stroke-linecap:square;paint-order:normal"
           d="M 408.53318,740.67172 V 676.6695 l 312.76769,-15.73453 -94.51517,57.60199 z"
           id="path9" /><rect
           style="display:inline;fill:#f3c651;fill-opacity:1;stroke-width:18;stroke-linecap:square;paint-order:normal"
           id="rect1"
           width="215.73509"
           height="64.00222"
           x="187.02448"
           y="677.33521" /><rect
           style="display:inline;fill:#b93773;fill-opacity:1;stroke-width:18;stroke-linecap:square;paint-order:normal"
           id="rect2"
           width="125.19165"
           height="64.00222"
           x="234.93263"
           y="677.33521" /><path
           id="path19-1-7"
           style="display:inline;fill:none;fill-opacity:1;stroke:#3f2409;stroke-width:32;stroke-linecap:butt;stroke-linejoin:round;stroke-dasharray:none;stroke-opacity:1;paint-order:stroke fill markers"
           d="m 380.12393,741.33742 c 52.30842,-2.13467 236.24397,-5.63047 286.66101,-22.80074 42.96673,-24.80684 54.516,-57.602 54.516,-57.602 0,0 -104.0333,16.40052 -341.75337,16.40052 H 187.02446 c -9.80923,24.12557 -5.83845,46.55211 1.51166,64.00222 z" /><path
           style="display:inline;fill:none;fill-opacity:1;stroke:#3f2409;stroke-width:32;stroke-linecap:butt;stroke-linejoin:round;stroke-dasharray:none;stroke-opacity:1;paint-order:stroke fill markers"
           d="m 370.98564,626.13334 c -29.21507,83.2029 0,166.40576 0,166.40576"
           id="path4" /><path
           id="path8"
           style="display:inline;fill:none;fill-opacity:1;stroke:#3f2409;stroke-width:24.0001;stroke-linecap:butt;stroke-linejoin:round;stroke-dasharray:none;stroke-opacity:1;paint-order:stroke fill markers"
           d="m 234.93263,677.33519 c -9.80922,24.1256 -5.83808,46.55211 1.51203,64.00222" /><path
           id="path8-8"
           style="display:inline;fill:none;fill-opacity:1;stroke:#3f2409;stroke-width:24.0001;stroke-linecap:butt;stroke-linejoin:round;stroke-dasharray:none;stroke-opacity:1;paint-order:stroke fill markers"
           d="m 408.53363,676.6695 c -9.80922,24.1256 -5.83808,46.55211 1.51203,64.00222" /><path
           id="rect14"
           style="display:inline;fill:#fcf3fc;fill-opacity:1;stroke:#3f2409;stroke-width:32;stroke-linecap:round;stroke-linejoin:miter;stroke-dasharray:none;stroke-opacity:1;paint-order:normal"
           d="m 287.85767,599.91965 c 16.54549,5.37595 34.93894,-5.59486 41.08288,-24.504 l 11.12463,-34.23803 -59.91657,-19.46807 -11.12462,34.23803 c -6.14395,18.90913 2.28818,38.59611 18.83368,43.97207 z" /></g><g
         id="g3"
         style="display:inline;stroke-width:1.0472"
         transform="matrix(0.98273451,0,0,0.92790531,-68.724856,103.4385)"><path
           id="path6"
           style="display:inline;opacity:1;fill:#fcf3fc;fill-opacity:1;stroke:none;stroke-width:32.5454;stroke-linecap:butt;stroke-dasharray:none;stroke-opacity:1;paint-order:stroke fill markers"
           d="M 128.19729,205.17164 131,381.83789 l 126.37664,86.16505 126.37727,-86.16505 0.0455,-176.71504 -126.42275,-1.82988 z"
           transform="matrix(1,0,0,1.0601824,0,-11.209883)" /><path
           id="path15-1-7"
           style="display:inline;fill:none;fill-opacity:1;stroke:#3f2409;stroke-width:25.1328;stroke-linecap:butt;stroke-linejoin:round;stroke-dasharray:none;stroke-opacity:1;paint-order:stroke markers fill"
           d="m 131,194.05995 c 63.93177,14.63013 186.07845,14.56176 250,-0.0528" /></g><path
         d="m 130.66211,378.63672 v 23.7207 h 33.44336 c -0.31229,6.15332 -0.90656,12.33659 -1.89258,18.5625 l -0.002,0.0137 -0.002,0.0137 c -1.0109,6.91495 -2.86155,13.61095 -5.55859,20.10742 -2.65539,6.39611 -6.60083,12.39626 -11.88477,18.02148 -5.21623,5.55317 -12.24732,10.51674 -21.13867,14.83985 l -3.29687,1.60546 2.92187,2.21485 c 2.70989,2.05507 5.36369,4.58324 7.95508,7.5957 l 0.002,0.002 0.002,0.002 c 2.68644,3.1094 4.70789,5.97209 6.07226,8.54297 l 1.06446,2.00781 1.99414,-1.08399 c 10.21549,-5.55378 18.56146,-11.93739 24.99414,-19.18164 l 0.006,-0.006 0.004,-0.006 c 6.37489,-7.26777 11.3173,-15.10202 14.78907,-23.47851 3.43688,-8.29233 5.86165,-16.85589 7.27343,-25.67969 1.36261,-8.10388 2.23097,-16.13002 2.71094,-24.09375 h 28.02344 c -0.59371,20.31962 -1.33892,35.9992 -2.24414,46.37891 -0.47017,5.3475 -1.06794,9.58774 -1.76563,12.64844 -0.6941,3.04493 -1.63191,4.90805 -2.01758,5.32031 -0.69469,0.68985 -1.31617,1.10517 -1.81445,1.30469 -0.48081,0.19251 -1.34278,0.35742 -2.53906,0.35742 h -8.37891 c -3.58251,-0.0854 -7.56234,-0.30087 -11.93945,-0.64453 l -4.67774,-0.36719 2.64258,3.88086 c 1.18643,1.7419 2.28332,3.84734 3.27149,6.32031 l 0.006,0.0117 0.004,0.0137 c 0.99907,2.4169 1.78695,4.77821 2.36328,7.08594 l 0.006,0.0273 0.008,0.0254 c 0.65947,2.39304 1.01368,4.44963 1.08984,6.12696 l 0.0937,2.10351 2.10352,0.0449 c 4.08054,0.087 8.16164,0.13086 12.24218,0.13086 4.16029,0 7.69872,-0.26215 10.66211,-0.81836 l 0.008,-0.002 h 0.006 c 3.28114,-0.63865 6.21269,-1.65607 8.77539,-3.07227 2.86289,-1.44027 5.41749,-3.92012 7.79493,-7.30078 1.76053,-2.39232 3.01314,-5.66327 4.00195,-9.89257 0.99014,-4.23496 1.77032,-9.80706 2.38086,-16.78125 0.69849,-6.99214 1.26368,-15.77277 1.69726,-26.36329 0.4332,-10.58074 0.82183,-23.40391 1.16797,-38.47656 0.0884,-0.96309 0.12891,-2.12089 0.12891,-3.55859 v -4.07422 l 0.29687,-4.15039 z"
         style="-inkscape-font-specification:'Mochiy Pop One, Normal';fill:#3f2409;stroke-linecap:round"
         id="path11" /></g></g></svg>
